<svg width="23" height="23" viewBox="0 0 23 23" fill="none" xmlns="http://www.w3.org/2000/svg">
<g clip-path="url(#clip0)">
<path d="M22.9775 6.76206C22.9236 5.53998 22.726 4.69982 22.4429 3.9718C22.1509 3.19903 21.7015 2.50717 21.1129 1.93202C20.5377 1.34792 19.8413 0.89405 19.0775 0.606564C18.3453 0.323466 17.5095 0.125841 16.2874 0.0719592C15.0562 0.0135143 14.6653 0 11.5427 0C8.41997 0 8.02911 0.0135143 6.80247 0.067396C5.58039 0.121278 4.74022 0.319078 4.01238 0.602001C3.23943 0.89405 2.54757 1.34336 1.97242 1.93202C1.38833 2.50717 0.934631 3.20359 0.646969 3.96741C0.363871 4.69982 0.166246 5.53542 0.112365 6.7575C0.0539196 7.9887 0.0404053 8.37957 0.0404053 11.5022C0.0404053 14.6249 0.0539196 15.0158 0.107801 16.2424C0.161683 17.4645 0.359483 18.3047 0.642581 19.0327C0.934631 19.8055 1.38833 20.4973 1.97242 21.0725C2.54757 21.6566 3.244 22.1104 4.00782 22.3979C4.74022 22.681 5.57583 22.8787 6.79808 22.9325C8.02455 22.9866 8.41559 22.9999 11.5383 22.9999C14.6609 22.9999 15.0518 22.9866 16.2785 22.9325C17.5005 22.8787 18.3407 22.681 19.0685 22.3979C20.6143 21.8003 21.8363 20.5782 22.434 19.0327C22.7169 18.3003 22.9147 17.4645 22.9686 16.2424C23.0224 15.0158 23.036 14.6249 23.036 11.5022C23.036 8.37957 23.0314 7.9887 22.9775 6.76206ZM20.9063 16.1526C20.8568 17.2758 20.6681 17.8824 20.5109 18.2868C20.1244 19.2888 19.3292 20.084 18.3272 20.4705C17.9228 20.6277 17.3119 20.8164 16.193 20.8657C14.9799 20.9198 14.616 20.9331 11.5472 20.9331C8.47842 20.9331 8.11002 20.9198 6.90128 20.8657C5.77802 20.8164 5.17145 20.6277 4.76708 20.4705C4.26845 20.2862 3.81458 19.9941 3.44618 19.6122C3.06427 19.2393 2.77222 18.79 2.58794 18.2913C2.43068 17.887 2.24201 17.2758 2.19269 16.1571C2.13863 14.944 2.12529 14.58 2.12529 11.5112C2.12529 8.4424 2.13863 8.074 2.19269 6.86544C2.24201 5.74217 2.43068 5.13561 2.58794 4.73123C2.77222 4.23243 3.06427 3.77874 3.45075 3.41017C3.82353 3.02826 4.27284 2.73621 4.77164 2.5521C5.17602 2.39484 5.78714 2.20617 6.90585 2.15667C8.11897 2.10279 8.48298 2.08928 11.5516 2.08928C14.625 2.08928 14.9888 2.10279 16.1975 2.15667C17.3208 2.20617 17.9274 2.39484 18.3317 2.5521C18.8304 2.73621 19.2842 3.02826 19.6526 3.41017C20.0345 3.78313 20.3266 4.23243 20.5109 4.73123C20.6681 5.13561 20.8568 5.74656 20.9063 6.86544C20.9602 8.07857 20.9737 8.4424 20.9737 11.5112C20.9737 14.58 20.9602 14.9394 20.9063 16.1526Z" fill="white" fill-opacity="0.91"/>
<path d="M11.5427 5.59387C8.2808 5.59387 5.63428 8.24022 5.63428 11.5023C5.63428 14.7643 8.2808 17.4106 11.5427 17.4106C14.8047 17.4106 17.451 14.7643 17.451 11.5023C17.451 8.24022 14.8047 5.59387 11.5427 5.59387ZM11.5427 15.3349C9.42653 15.3349 7.71004 13.6186 7.71004 11.5023C7.71004 9.38595 9.42653 7.66963 11.5427 7.66963C13.659 7.66963 15.3753 9.38595 15.3753 11.5023C15.3753 13.6186 13.659 15.3349 11.5427 15.3349Z" fill="white" fill-opacity="0.91"/>
<path d="M19.0641 5.36026C19.0641 6.12198 18.4465 6.7396 17.6846 6.7396C16.9229 6.7396 16.3053 6.12198 16.3053 5.36026C16.3053 4.59837 16.9229 3.98093 17.6846 3.98093C18.4465 3.98093 19.0641 4.59837 19.0641 5.36026Z" fill="white" fill-opacity="0.91"/>
</g>
<defs>
<clipPath id="clip0">
<rect width="23" height="23" fill="white"/>
</clipPath>
</defs>
</svg>
