<svg width="23" height="23" viewBox="0 0 23 23" fill="none" xmlns="http://www.w3.org/2000/svg">
<path d="M21.8257 16.8894C21.5772 17.8132 20.8489 18.5414 19.9253 18.7901C18.238 19.2518 11.4885 19.2518 11.4885 19.2518C11.4885 19.2518 4.7393 19.2518 3.05197 18.8076C2.14612 18.5591 1.40004 17.8131 1.15156 16.8894C0.70752 15.2022 0.70752 11.7032 0.70752 11.7032C0.70752 11.7032 0.70752 8.18655 1.15156 6.51699C1.4003 5.59337 2.12835 4.86519 3.0521 4.61646C4.75707 4.15465 11.4888 4.15465 11.4888 4.15465C11.4888 4.15465 18.238 4.15465 19.9253 4.59882C20.8491 4.84742 21.5772 5.57561 21.826 6.49922C22.2699 8.18655 22.2699 11.6854 22.2699 11.6854C22.2699 11.6854 22.2877 15.2022 21.8257 16.8894ZM9.33963 8.47069V14.9357L14.9521 11.7032L9.33963 8.47069Z" fill="white" fill-opacity="0.91"/>
</svg>
